<svg width="27" height="28" viewBox="0 0 27 28" fill="none" xmlns="http://www.w3.org/2000/svg">
<path fill-rule="evenodd" clip-rule="evenodd" d="M13.5 0.865356C6.35203 0.865356 0.5625 6.80334 0.5625 14.1346C0.5625 20.0062 4.26586 24.9656 9.40852 26.7238C10.0554 26.8399 10.298 26.4418 10.298 26.0935C10.298 25.7783 10.2818 24.7334 10.2818 23.6221C7.03125 24.2358 6.19031 22.8093 5.93156 22.063C5.78602 21.6815 5.15531 20.5038 4.60547 20.1887C4.15266 19.9399 3.50578 19.3262 4.5893 19.3096C5.60813 19.293 6.33586 20.2716 6.57844 20.6697C7.74281 22.6767 9.60258 22.1127 10.3465 21.7644C10.4597 20.9019 10.7993 20.3214 11.1713 19.9896C8.29266 19.6579 5.28469 18.5134 5.28469 13.438C5.28469 11.9949 5.78602 10.8007 6.61078 9.87185C6.48141 9.54011 6.02859 8.18002 6.74016 6.3555C6.74016 6.3555 7.82367 6.00718 10.298 7.7156C11.333 7.41704 12.4327 7.26776 13.5323 7.26776C14.632 7.26776 15.7317 7.41704 16.7667 7.7156C19.241 5.9906 20.3245 6.3555 20.3245 6.3555C21.0361 8.18002 20.5833 9.54011 20.4539 9.87185C21.2787 10.8007 21.78 11.9783 21.78 13.438C21.78 18.53 18.7559 19.6579 15.8773 19.9896C16.3463 20.4043 16.7505 21.2005 16.7505 22.4444C16.7505 24.2192 16.7344 25.6456 16.7344 26.0935C16.7344 26.4418 16.977 26.8565 17.6238 26.7238C22.7341 24.9656 26.4375 19.9896 26.4375 14.1346C26.4375 6.80334 20.648 0.865356 13.5 0.865356V0.865356Z" fill="white"/>
</svg>
