<svg width="28" height="29" viewBox="0 0 28 29" fill="none" xmlns="http://www.w3.org/2000/svg">
<g clip-path="url(#clip0_7_238)">
<path d="M25.9273 0.359009H2.06719C0.924219 0.359009 0 1.26135 0 2.37698V26.3356C0 27.4512 0.924219 28.359 2.06719 28.359H25.9273C27.0703 28.359 28 27.4512 28 26.341V2.37698C28 1.26135 27.0703 0.359009 25.9273 0.359009ZM8.30703 24.2192H4.15078V10.8535H8.30703V24.2192ZM6.22891 9.03245C4.89453 9.03245 3.81719 7.9551 3.81719 6.6262C3.81719 5.29729 4.89453 4.21995 6.22891 4.21995C7.55781 4.21995 8.63516 5.29729 8.63516 6.6262C8.63516 7.94963 7.55781 9.03245 6.22891 9.03245ZM23.8602 24.2192H19.7094V17.7223C19.7094 16.1746 19.682 14.1785 17.5492 14.1785C15.3891 14.1785 15.0609 15.8684 15.0609 17.6129V24.2192H10.9156V10.8535H14.8969V12.6801H14.9516C15.5039 11.6301 16.8602 10.5199 18.8781 10.5199C23.0836 10.5199 23.8602 13.2871 23.8602 16.8856V24.2192V24.2192Z" fill="white"/>
</g>
<defs>
<clipPath id="clip0_7_238">
<rect width="28" height="28" fill="white" transform="translate(0 0.359009)"/>
</clipPath>
</defs>
</svg>
