<svg width="28" height="23" viewBox="0 0 28 23" fill="none" xmlns="http://www.w3.org/2000/svg">
<path fill-rule="evenodd" clip-rule="evenodd" d="M2.04167 0.158936C0.914085 0.158936 0 1.16182 0 2.39894V20.3189C0 21.5561 0.914085 22.5589 2.04167 22.5589H25.9583C27.0859 22.5589 28 21.5561 28 20.3189V2.39894C28 1.16182 27.0859 0.158936 25.9583 0.158936H2.04167ZM1.75 2.39894C1.75 2.2222 1.88058 2.07894 2.04167 2.07894H25.9583C26.1194 2.07894 26.25 2.2222 26.25 2.39894V3.48894L14.1633 12.449C14.0646 12.5221 13.9353 12.5221 13.8367 12.449L1.75 3.48899V2.39894ZM1.75 5.80618V20.3189C1.75 20.4957 1.88058 20.6389 2.04167 20.6389H25.9583C26.1194 20.6389 26.25 20.4957 26.25 20.3189V5.80613L15.143 14.0399C14.4524 14.5518 13.5475 14.5518 12.8569 14.0399L1.75 5.80618Z" fill="white"/>
</svg>
