<svg width="1185" height="741" viewBox="0 0 1185 741" fill="none" xmlns="http://www.w3.org/2000/svg">
<path d="M0.956835 -273.066C0.956835 -273.066 357.827 -430.896 571.318 -363.117C784.809 -295.337 711.902 12.074 903.451 89.7364C1095 167.399 1268.09 -11.7648 1453.98 56.6113C1806.59 186.316 2187.35 739.516 2187.35 739.516M0.956835 -273.066C0.956835 -273.066 294.472 -312.773 486.756 -217.522C689.303 -117.187 527.569 290.469 735.118 381.298C935.52 468.999 1147.76 163.515 1369.95 202.161C1731.23 265.001 2187.35 739.516 2187.35 739.516M0.956835 -273.066C0.956835 -273.066 297.883 -321.872 493.086 -228.485C695.752 -131.528 541.52 269.292 747.778 359.371C946.55 446.18 1156.93 150.41 1376.28 191.198C1737.24 258.319 2187.35 739.516 2187.35 739.516M0.956835 -273.066C0.956835 -273.066 301.068 -330.431 499.058 -238.828C701.834 -145.012 554.655 249.286 759.721 338.684C956.978 424.678 1165.55 138.036 1382.25 180.855C1742.88 252.115 2187.35 739.516 2187.35 739.516M0.956835 -273.066C0.956835 -273.066 303.995 -338.352 504.603 -248.433C707.481 -157.496 566.829 230.684 770.811 319.475C966.682 404.736 1173.55 126.537 1387.79 171.25C1748.09 246.444 2187.35 739.516 2187.35 739.516M0.956835 -273.066C0.956835 -273.066 306.671 -345.64 509.721 -257.299C712.696 -168.991 578.047 213.49 781.049 301.744C975.657 386.349 1180.92 115.914 1392.91 162.385C1752.86 241.287 2187.35 739.516 2187.35 739.516M0.956835 -273.066C0.956835 -273.066 308.882 -351.693 513.987 -264.687C717.043 -178.549 587.38 199.147 789.579 286.968C983.149 371.041 1187.05 107.055 1397.18 154.997C1756.81 237.049 2187.35 739.516 2187.35 739.516M0.956835 -273.066C0.956835 -273.066 311.294 -358.329 518.679 -272.813C721.829 -189.044 597.631 183.351 798.963 270.715C991.404 354.219 1193.79 97.302 1401.87 146.87C1761.13 232.449 2187.35 739.516 2187.35 739.516M0.956835 -273.066C0.956835 -273.066 313.9 -365.539 523.798 -281.679C727.056 -200.471 608.794 166.099 809.201 252.983C1000.43 335.888 1201.12 86.6529 1406.99 138.004C1765.81 227.509 2187.35 739.516 2187.35 739.516M0.956835 -273.066C0.956835 -273.066 316.266 -372.12 528.49 -289.806C731.854 -210.928 619.01 150.265 818.585 236.73C1008.71 319.102 1207.84 76.8818 1411.68 129.877C1770.06 223.052 2187.35 739.516 2187.35 739.516M0.956835 -273.066C0.956835 -273.066 320.343 -383.54 536.68 -303.993C740.247 -229.142 636.803 122.577 834.966 208.356C1023.22 289.844 1219.55 59.8016 1419.87 115.69C1777.4 215.438 2187.35 739.516 2187.35 739.516M0.956835 -273.066C0.956835 -273.066 318.397 -378.079 532.755 -297.194C736.222 -220.419 628.282 135.854 827.116 221.954C1016.26 303.859 1213.94 67.9908 1415.95 122.489C1773.9 219.06 2187.35 739.516 2187.35 739.516M0.956835 -273.066C0.956835 -273.066 323.671 -392.929 543.467 -315.748C747.222 -244.201 651.506 99.5896 848.54 184.845C1035.27 265.642 1229.22 45.6253 1426.66 103.935C1783.4 209.294 2187.35 739.516 2187.35 739.516M0.956835 -273.066C0.956835 -273.066 322.094 -388.472 540.239 -310.157C743.902 -237.042 644.518 110.528 842.085 196.027C1029.54 277.148 1224.62 52.3704 1423.43 109.526C1780.56 212.198 2187.35 739.516 2187.35 739.516M0.956835 -273.066C0.956835 -273.066 325.924 -399.324 548.12 -323.806C752.015 -254.507 661.563 83.8091 857.845 168.729C1043.56 249.076 1235.85 35.8954 1431.31 95.8771C1787.47 205.171 2187.35 739.516 2187.35 739.516M0.956835 -273.066C0.956835 -273.066 325.004 -396.71 546.215 -320.507C750.052 -250.29 657.448 90.2716 854.036 175.326C1040.16 255.856 1233.14 39.8799 1429.41 99.1757C1785.81 206.85 2187.35 739.516 2187.35 739.516M0.956835 -273.066C0.956835 -273.066 327.72 -404.438 551.858 -330.281C755.875 -262.782 669.632 71.1133 865.322 155.779C1050.22 235.778 1241.16 28.0684 1435.05 89.4019C1790.71 201.91 2187.35 739.516 2187.35 739.516M0.956835 -273.066C0.956835 -273.066 326.896 -402.089 550.138 -327.303C754.098 -258.976 665.922 76.9548 861.882 161.736C1047.16 241.893 1238.72 31.6696 1433.33 92.3804C1789.22 203.404 2187.35 739.516 2187.35 739.516M0.956835 -273.066C0.956835 -273.066 328.454 -406.536 553.397 -332.946C757.465 -266.185 672.949 65.8847 868.399 150.449C1052.97 230.308 1243.35 24.8452 1436.59 86.7371C1792.03 200.581 2187.35 739.516 2187.35 739.516M0.956835 -273.066C0.956835 -273.066 330.083 -411.196 556.825 -338.884C761.014 -273.764 680.334 54.2263 875.255 138.574C1059.1 218.129 1248.21 17.6588 1440.02 80.7994C1794.97 197.65 2187.35 739.516 2187.35 739.516M0.956835 -273.066C0.956835 -273.066 329.295 -408.938 555.162 -336.004C759.292 -270.089 676.754 59.8821 871.929 144.334C1056.13 224.035 1245.85 21.145 1438.35 83.6792C1793.55 199.067 2187.35 739.516 2187.35 739.516M0.956835 -273.066C0.956835 -273.066 331.359 -414.856 559.528 -343.566C763.817 -279.738 686.152 45.0241 880.662 129.208C1063.94 208.531 1252.05 11.9867 1442.72 76.1166C1797.27 195.366 2187.35 739.516 2187.35 739.516M0.956835 -273.066C0.956835 -273.066 330.706 -412.984 558.144 -341.169C762.381 -276.68 683.174 49.7369 877.893 134.004C1061.46 213.445 1250.09 14.8915 1441.33 78.5144C1796.09 196.533 2187.35 739.516 2187.35 739.516M0.956835 -273.066C0.956835 -273.066 332.106 -417.004 561.119 -346.322C765.469 -283.252 689.572 39.6056 883.844 123.697C1066.79 202.886 1254.3 8.647 1444.31 73.361C1798.62 194.034 2187.35 739.516 2187.35 739.516M0.956835 -273.066C0.956835 -273.066 332.6 -418.424 562.173 -348.147C766.563 -285.578 691.836 36.0163 885.951 120.048C1068.68 199.15 1255.8 6.43476 1445.36 71.5362C1799.5 193.157 2187.35 739.516 2187.35 739.516M0.956835 -273.066C0.956835 -273.066 333.134 -419.963 563.316 -350.127C767.752 -288.103 694.292 32.1196 888.238 116.087C1070.73 195.095 1257.42 4.03313 1446.51 69.5558C1800.47 192.209 2187.35 739.516 2187.35 739.516M0.956835 -273.066C0.956835 -273.066 333.692 -421.57 564.512 -352.199C768.996 -290.743 696.859 28.0426 890.63 111.944C1072.88 190.856 1259.11 1.52039 1447.7 67.4845C1801.47 191.222 2187.35 739.516 2187.35 739.516M0.956835 -273.066C0.956835 -273.066 258.473 -312.45 470.902 -206.186C694.859 -94.1555 501.194 286.421 724.11 400.365C919.91 500.449 1139.98 174.411 1364.75 211.164C1726.36 270.293 2187.35 739.516 2187.35 739.516M0.956835 -273.066C0.956835 -273.066 334.342 -423.445 565.91 -354.62C770.452 -293.829 699.859 23.2741 893.426 107.101C1075.39 185.901 1261.09 -1.41846 1449.1 65.0627C1802.64 190.075 2187.35 739.516 2187.35 739.516M0.956835 -273.066C0.956835 -273.066 334.99 -425.318 567.309 -357.044C771.91 -296.916 702.86 18.5004 896.224 102.254C1077.9 180.945 1263.07 -4.36042 1450.5 62.6393C1803.8 188.934 2187.35 739.516 2187.35 739.516M0.956835 -273.066C0.956835 -273.066 335.538 -426.901 568.494 -359.096C773.146 -299.53 705.4 14.4563 898.594 98.1491C1080.03 176.749 1264.75 -6.85278 1451.68 60.5869C1804.79 187.972 2187.35 739.516 2187.35 739.516M0.956835 -273.066C0.956835 -273.066 336.125 -428.599 569.768 -361.302C776.271 -301.822 708.129 10.1079 901.141 93.7372C1082.32 172.241 1266.55 -9.53257 1452.96 58.381C1805.84 186.945 2187.35 739.516 2187.35 739.516" stroke="url(#paint0_radial_13_35)" stroke-opacity="0.3" stroke-width="2.66174"/>
<defs>
<radialGradient id="paint0_radial_13_35" cx="0" cy="0" r="1" gradientUnits="userSpaceOnUse" gradientTransform="translate(623.62 -19.4454) rotate(29.257) scale(1733.86 489.072)">
<stop stop-color="white" stop-opacity="0.2"/>
<stop offset="1" stop-color="white"/>
</radialGradient>
</defs>
</svg>
