<svg width="1826" height="599" viewBox="0 0 1826 599" fill="none" xmlns="http://www.w3.org/2000/svg">
<path d="M1768.13 496.567C2092.96 -743.79 954.647 1478.6 1 165.804M1 165.804C954.647 1478.6 2092.96 -807.79 1768.13 432.568M1 165.804C954.647 1478.6 2092.96 -775.79 1768.13 464.567M1 165.804C954.647 1478.6 2092.96 -839.79 1768.13 400.568M1 165.804C954.647 1478.6 2092.96 -759.79 1768.13 480.567M1 165.804C954.647 1478.6 2092.96 -823.79 1768.13 416.568M1 165.804C954.647 1478.6 2092.96 -791.79 1768.13 448.568M1 165.804C954.647 1478.6 2092.96 -855.79 1768.13 384.568M1 165.804C954.647 1478.6 2092.96 -751.79 1768.13 488.567M1 165.804C954.647 1478.6 2092.96 -815.79 1768.13 424.568M1 165.804C954.647 1478.6 2092.96 -783.79 1768.13 456.568M1 165.804C954.647 1478.6 2092.96 -847.79 1768.13 392.568M1 165.804C954.647 1478.6 2092.96 -767.79 1768.13 472.567M1 165.804C954.647 1478.6 2092.96 -831.79 1768.13 408.568M1 165.804C954.647 1478.6 2092.96 -799.79 1768.13 440.568M1 165.804C954.647 1478.6 2092.96 -863.79 1768.13 376.568" stroke="url(#paint0_linear_7_48)" stroke-opacity="0.25" stroke-width="2"/>
<defs>
<linearGradient id="paint0_linear_7_48" x1="1979.7" y1="196.192" x2="1876.63" y2="871.876" gradientUnits="userSpaceOnUse">
<stop stop-color="white"/>
<stop offset="0.395" stop-color="white" stop-opacity="0.58"/>
<stop offset="0.68" stop-color="white"/>
<stop offset="1" stop-color="#F5F5F5" stop-opacity="0.66"/>
</linearGradient>
</defs>
</svg>
