<svg width="3200" height="1647" viewBox="0 0 3200 1647" fill="none" xmlns="http://www.w3.org/2000/svg">
<path d="M1.181 207.723C1.181 207.723 548.164 -70.6383 862.788 20.4176C1177.41 111.474 1044.29 605.322 1325.27 713.777C1606.25 822.232 1879.53 524.266 2152.74 618.413C2671.01 797.004 3198.57 1645.94 3198.57 1645.94M1.181 207.723C1.181 207.723 444.06 121.869 724.775 258.198C1020.47 401.803 746.472 1061.75 1050.4 1189.87C1343.87 1313.58 1685.62 811.966 2015.52 856.082C2551.97 927.815 3198.57 1645.94 3198.57 1645.94M1.181 207.723C1.181 207.723 449.878 107.153 735.111 240.296C1031.25 378.529 769.02 1027.03 1071.07 1154.06C1362.17 1276.48 1700.36 790.442 2025.86 838.179C2561.51 916.736 3198.57 1645.94 3198.57 1645.94M1.181 207.723C1.181 207.723 455.314 93.3142 744.862 223.406C1041.41 356.643 790.255 994.241 1090.58 1120.28C1379.46 1241.53 1714.25 770.122 2035.61 821.29C2570.44 906.445 3198.57 1645.94 3198.57 1645.94M1.181 207.723C1.181 207.723 460.315 80.5074 753.916 207.723C1050.84 336.379 809.941 963.754 1108.69 1088.92C1395.55 1209.1 1727.12 751.24 2044.67 805.607C2578.68 897.034 3198.57 1645.94 3198.57 1645.94M1.181 207.723C1.181 207.723 464.891 68.7268 762.274 193.247C1059.55 317.72 828.085 935.579 1125.4 1059.96C1410.43 1179.21 1738.99 733.798 2053.02 791.13C2586.23 888.474 3198.57 1645.94 3198.57 1645.94M1.181 207.723C1.181 207.723 468.674 58.9426 769.239 181.183C1066.8 302.202 843.184 912.076 1139.33 1035.84C1422.84 1154.31 1748.86 719.253 2059.99 779.066C2592.48 881.437 3198.57 1645.94 3198.57 1645.94M1.181 207.723C1.181 207.723 472.803 48.2171 776.901 167.913C1074.79 285.164 859.77 886.196 1154.66 1009.3C1436.52 1126.96 1759.72 703.241 2067.65 765.796C2599.31 873.798 3198.57 1645.94 3198.57 1645.94M1.181 207.723C1.181 207.723 477.268 36.5641 785.259 153.436C1083.51 266.611 877.837 857.931 1171.37 980.342C1451.46 1097.15 1771.54 685.76 2076.01 751.319C2606.7 865.588 3198.57 1645.94 3198.57 1645.94M1.181 207.723C1.181 207.723 481.324 25.9287 792.921 140.166C1091.51 249.633 894.374 831.992 1186.7 953.802C1465.18 1069.85 1782.36 669.721 2083.67 738.049C2613.42 858.18 3198.57 1645.94 3198.57 1645.94M1.181 207.723C1.181 207.723 488.321 7.47765 806.296 117C1105.5 220.056 923.185 786.64 1213.44 907.47C1489.19 1022.26 1801.23 641.688 2097.05 714.883C2625.01 845.519 3198.57 1645.94 3198.57 1645.94M1.181 207.723C1.181 207.723 484.981 16.3013 799.886 128.102C1098.79 234.222 909.387 808.386 1200.63 929.674C1477.67 1045.05 1792.19 655.128 2090.64 725.985C2619.48 851.543 3198.57 1645.94 3198.57 1645.94M1.181 207.723C1.181 207.723 494.036 -7.69188 817.378 97.804C1117.12 195.6 947.001 748.993 1235.61 869.079C1509.13 982.886 1816.83 618.423 2108.13 695.687C2634.48 835.296 3198.57 1645.94 3198.57 1645.94M1.181 207.723C1.181 207.723 491.327 -0.491131 812.107 106.934C1111.59 207.226 935.68 766.906 1225.07 887.338C1499.64 1001.6 1809.41 629.492 2102.86 704.817C2630 840.128 3198.57 1645.94 3198.57 1645.94M1.181 207.723C1.181 207.723 497.909 -18.0227 824.975 84.6468C1125.1 178.86 963.296 723.151 1250.8 842.764C1522.83 955.936 1827.51 602.457 2115.72 682.53C2640.9 828.432 3198.57 1645.94 3198.57 1645.94M1.181 207.723C1.181 207.723 496.328 -13.8003 821.865 90.033C1121.83 185.711 956.628 733.734 1244.58 853.537C1517.22 966.965 1823.14 608.995 2112.62 687.916C2638.28 831.228 3198.57 1645.94 3198.57 1645.94M1.181 207.723C1.181 207.723 500.996 -26.2832 831.079 74.0734C1131.53 165.421 976.372 702.363 1263.01 821.618C1533.85 934.299 1836.08 589.615 2121.83 671.957C2646 823.002 3198.57 1645.94 3198.57 1645.94M1.181 207.723C1.181 207.723 499.579 -22.4881 828.271 78.937C1128.57 171.601 970.359 711.928 1257.4 831.345C1528.78 944.249 1832.14 595.524 2119.02 676.82C2643.66 825.49 3198.57 1645.94 3198.57 1645.94M1.181 207.723C1.181 207.723 502.26 -29.6717 833.591 69.7221C1134.18 159.893 981.749 693.802 1268.04 812.915C1538.39 925.4 1839.6 584.326 2124.34 667.605C2648.09 820.789 3198.57 1645.94 3198.57 1645.94M1.181 207.723C1.181 207.723 505.062 -37.1982 839.189 60.0264C1140.08 147.581 993.72 674.714 1279.23 793.524C1548.52 905.582 1847.45 572.536 2129.94 657.91C2652.72 815.906 3198.57 1645.94 3198.57 1645.94M1.181 207.723C1.181 207.723 503.706 -33.552 836.474 64.7289C1137.22 153.551 987.915 683.974 1273.8 802.928C1543.61 915.192 1843.65 578.256 2127.22 662.612C2650.48 818.266 3198.57 1645.94 3198.57 1645.94M1.181 207.723C1.181 207.723 507.259 -43.1105 843.604 52.3799C1144.75 137.876 1003.15 659.649 1288.06 778.231C1556.52 889.965 1853.64 563.231 2134.35 650.263C2656.34 812.101 3198.57 1645.94 3198.57 1645.94M1.181 207.723C1.181 207.723 506.136 -40.0859 841.343 56.2952C1142.36 142.845 998.323 667.364 1283.54 786.061C1552.42 897.96 1850.47 567.996 2132.09 654.178C2654.49 814.044 3198.57 1645.94 3198.57 1645.94M1.181 207.723C1.181 207.723 508.545 -46.5797 846.202 47.8802C1147.49 132.167 1008.7 650.778 1293.26 769.231C1561.23 880.779 1857.28 557.752 2136.95 645.764C2658.46 809.881 3198.57 1645.94 3198.57 1645.94M1.181 207.723C1.181 207.723 509.395 -48.8728 847.922 44.9006C1149.32 128.388 1012.37 644.902 1296.7 763.272C1564.35 874.698 1859.69 554.123 2138.67 642.784C2659.86 808.418 3198.57 1645.94 3198.57 1645.94M1.181 207.723C1.181 207.723 510.315 -51.3578 849.789 41.6669C1151.29 124.287 1016.35 638.523 1300.43 756.804C1567.74 868.1 1862.3 550.183 2140.54 639.55C2661.38 806.838 3198.57 1645.94 3198.57 1645.94M1.181 207.723C1.181 207.723 511.275 -53.9527 851.742 38.2845C1153.36 119.998 1020.51 631.849 1304.34 750.04C1571.28 861.201 1865.04 546.061 2142.49 636.168C2662.96 805.194 3198.57 1645.94 3198.57 1645.94M1.181 207.723C1.181 207.723 390.095 125.178 700.138 277.431C1027.01 437.947 707.267 1057.37 1032.43 1221C1318.04 1364.73 1673.1 829.874 2007.04 870.783C2544.27 936.596 3198.57 1645.94 3198.57 1645.94M1.181 207.723C1.181 207.723 512.395 -56.9812 854.025 34.33C1155.78 114.984 1025.38 624.044 1308.9 742.131C1575.43 853.138 1868.23 541.24 2144.78 632.213C2664.8 803.281 3198.57 1645.94 3198.57 1645.94M1.181 207.723C1.181 207.723 513.512 -60.0057 856.31 30.3728C1158.21 109.968 1030.25 616.23 1313.47 734.216C1579.58 845.072 1871.43 536.414 2147.06 628.256C2666.63 801.378 3198.57 1645.94 3198.57 1645.94M1.181 207.723C1.181 207.723 514.456 -62.5625 858.245 27.0215C1160.26 105.721 1034.37 609.61 1317.34 727.514C1583.1 838.243 1874.13 532.326 2148.99 624.905C2668.18 799.775 3198.57 1645.94 3198.57 1645.94M1.181 207.723C1.181 207.723 515.467 -65.3056 860.324 23.4195C1165.12 101.838 1038.79 602.493 1321.5 720.31C1586.88 830.905 1877.04 527.931 2151.07 621.303C2669.84 798.061 3198.57 1645.94 3198.57 1645.94" stroke="url(#paint0_radial_6_3)" stroke-width="2.66174"/>
<defs>
<radialGradient id="paint0_radial_6_3" cx="0" cy="0" r="1" gradientUnits="userSpaceOnUse" gradientTransform="translate(914.464 562.124) rotate(29.1654) scale(2520.27 798.587)">
<stop stop-color="white" stop-opacity="0.2"/>
<stop offset="1" stop-color="white"/>
</radialGradient>
</defs>
</svg>
